<?xml version="1.0" encoding="utf-8"?>
<!-- Generator: Adobe Illustrator 22.0.1, SVG Export Plug-In . SVG Version: 6.00 Build 0)  -->
<svg version="1.1" id="Layer_1" xmlns="http://www.w3.org/2000/svg" xmlns:xlink="http://www.w3.org/1999/xlink" x="0px" y="0px"
	 viewBox="0 0 1126.7 1109" style="enable-background:new 0 0 1126.7 1109;" xml:space="preserve">
<style type="text/css">
	.st0{fill:#1B2F46;}
	.st1{fill:#1765B0;}
	.st2{fill:#49AFE3;}
</style>
<g>
	<g>
		<path class="st0" d="M766,133.8c-167,0-310.5,100.7-373.1,244.7h71.3v107.4H363c-2.4,17.8-3.6,36.1-3.6,54.6
			c0,18.2,1.2,36.1,3.5,53.7h100.5V486.8h89.3c24-95.5,110.4-166.3,213.3-166.3c60.7,0,115.6,24.6,155.4,64.3l0,0l133.3-130.8
			C981,179.8,878.9,133.8,766,133.8z M552.9,380.2h-48.6v-48.6h48.6V380.2z"/>
		<path class="st0" d="M1054.4,827.2l-133-131.1l0,0c-39.8,39.7-94.7,64.3-155.4,64.3c-103,0-189.4-70.7-213.3-166.3h-88.5v107.4
			h48.6v48.6h-48.6v-48.6h-71.7C454.9,846.1,598.6,947.2,766,947.2C878.8,947.2,980.8,901.3,1054.4,827.2L1054.4,827.2z"/>
	</g>
	<rect x="250.2" y="333.3" class="st1" width="109.1" height="109.1"/>
	<rect x="211" y="593.4" class="st1" width="59.7" height="59.7"/>
	<rect x="104.4" y="521.7" class="st1" width="45.2" height="45.2"/>
	<rect x="274.1" y="653" class="st2" width="105.7" height="105.7"/>
	<rect x="286" y="513.2" class="st2" width="53.7" height="53.7"/>
	<rect x="158.1" y="419.4" class="st2" width="70.8" height="70.8"/>
	<rect x="72" y="419.4" class="st2" width="30.7" height="30.7"/>
	<rect x="144.5" y="603.6" class="st2" width="29.8" height="29.8"/>
	<rect x="643.2" y="477.4" class="st2" width="35.8" height="35.8"/>
	<rect x="572.5" y="539.6" class="st1" width="53.7" height="53.7"/>
</g>
</svg>
